<?xml version="1.0" encoding="iso-8859-1"?>
<!-- Generator: Adobe Illustrator 16.0.0, SVG Export Plug-In . SVG Version: 6.00 Build 0)  -->
<!DOCTYPE svg PUBLIC "-//W3C//DTD SVG 1.1//EN" "http://www.w3.org/Graphics/SVG/1.1/DTD/svg11.dtd">
<svg version="1.1" id="&#x56FE;&#x5C42;_1" xmlns="http://www.w3.org/2000/svg" xmlns:xlink="http://www.w3.org/1999/xlink" x="0px"
	 y="0px" width="369px" height="347.071px" viewBox="0 0 369 347.071" style="enable-background:new 0 0 369 347.071;"
	 xml:space="preserve">
<text transform="matrix(1 0 0 1 405.5947 249.8037)" style="fill:#B3B3B3; font-family:'FiraCode-Bold'; font-size:130.245;">Formular</text>
<path style="fill:#808080;" d="M127.207,51.747l-19.108-38l37.901,19v-12l14,9l19.766-6.667l-4.002,6L187,28.414v4.333h9h5
	l21-21.667l-6.666,15.333c0,0,37.137-14,46.901-24.667s-11.568,31-11.568,31l12.271-3.083L252,51.747H127.207z"/>
<path style="fill:#737373;" d="M204.082,37.688l5.918-6.69l0.5,3.125c0,0,28.291-7.417,36.375-14.75s-7.292,19.542-8.625,20.125
	s12.625-1.375,12.625-1.375L247,46.073L204.082,37.688z"/>
<g>
	<path style="fill:#808080;" d="M189.085,111.256"/>
	<path style="fill:#737373;" d="M27.43,185.42c0-25.156-1.628-64.585,9.257-85.599V15.469c0-3.879,2.071-7.46,5.422-9.417
		c3.352-1.959,7.497-1.976,10.862-0.039l71.756,41c17.977-6.317,40.585-9.781,64.357-9.781c23.768,0,46.381,3.464,64.357,9.781
		l71.751-41c5.217-2.983,11.866-1.173,14.853,4.047c0.94,1.647,1.435,3.511,1.432,5.408V99.81
		c10.89,21.031,9.262,60.459,9.262,85.61"/>
	<path style="fill:#E6E6E6;" d="M350.738,185.42c-74.405-44.34-15.905-71.34-160.32-74.164
		C20.365,107.931,93.667,162.023,27.43,185.42c-8.979,22.45,1.333,62.864,5.824,67.354c8.981-4.49,26.943-8.981,40.413-8.981
		c-8.979,8.981-13.47,40.414-13.47,53.886c17.961-8.981,35.921-4.49,44.902,4.491c13.472,40.413,71.846,44.901,85.317,44.901
		c13.473,0,70.498-4.488,83.971-44.901c8.981-8.981,22.465-13.473,44.916-4.491c0-13.472-4.115-44.904-13.094-53.886
		c13.47,0,31.067,4.506,40.049,8.996C350.749,248.299,359.717,207.87,350.738,185.42z"/>
	<path style="fill:#F5F5F5;" d="M229.119,274.324c0,11.89-17.856,26.26-40.035,26.26s-40.034-14.356-40.034-26.26v-19.366h80.069
		V274.324z"/>
	<path style="fill:#CCCCCC;" d="M285.584,241.248c8.05,8.052,14.12,36.649,14.951,51.671c5.456,0.433,11.656,1.914,18.769,4.76
		c0-12.419-3.362-39.658-13.094-53.886C299.274,242.267,291.933,241.248,285.584,241.248z M255.788,302.17
		c-11.356,34.082-54.646,42.486-76.022,44.327c3.98,0.337,7.199,0.574,9.305,0.574c13.472,0,71.846-4.488,85.317-44.901
		c3.786-3.786,8.373-6.756,14.104-8.271C273.147,290.643,263.01,294.948,255.788,302.17z M335.543,200.564h-0.011
		c7.135,15.183-1.845,37.029-5.198,46.709c6.267,1.592,11.979,3.539,15.925,5.516c4.479-4.505,13.458-44.919,4.479-67.369
		c-5.209-4.171-3.099-4.135-13.596-8.85"/>
	<path style="fill:#F5F5F5;" d="M108.257,153.039c-0.006,12.399,10.042,22.456,22.442,22.462s22.456-10.042,22.462-22.442
		c0-0.006,0-0.012,0-0.02c0.006-12.399-10.042-22.456-22.442-22.462c-12.399-0.006-22.456,10.042-22.462,22.442
		C108.257,153.027,108.257,153.033,108.257,153.039z"/>
	<radialGradient id="SVGID_1_" cx="130.709" cy="153.04" r="15.4819" gradientUnits="userSpaceOnUse">
		<stop  offset="0.12" style="stop-color:#FFFF00"/>
		<stop  offset="1" style="stop-color:#8C6239;stop-opacity:0.3"/>
	</radialGradient>
	<path style="fill:url(#SVGID_1_);" d="M115.229,153.04c0,8.547,6.926,15.479,15.47,15.484c8.552,0.005,15.484-6.922,15.489-15.475
		c0,0,0-0.005,0-0.01c0-8.549-6.928-15.479-15.481-15.484c-8.542,0-15.478,6.928-15.478,15.475
		C115.229,153.035,115.229,153.04,115.229,153.04z"/>
	<path style="fill:#242424;" d="M121.729,153.039c0,4.959,4.019,8.981,8.976,8.984c4.962,0.003,8.984-4.017,8.987-8.979
		c0,0,0-0.003,0-0.006c0-4.96-4.02-8.981-8.982-8.984c-4.956,0-8.98,4.02-8.98,8.979
		C121.729,153.036,121.729,153.039,121.729,153.039z"/>
	<path style="fill:#F5F5F5;" d="M225.007,153.039c0,12.399,10.051,22.453,22.451,22.453c12.399,0,22.453-10.054,22.453-22.453l0,0
		c0-12.399-10.054-22.45-22.453-22.45C235.058,130.589,225.007,140.64,225.007,153.039z"/>
	<radialGradient id="SVGID_2_" cx="247.459" cy="153.0391" r="15.4819" gradientUnits="userSpaceOnUse">
		<stop  offset="0.3005" style="stop-color:#FFFF00"/>
		<stop  offset="1" style="stop-color:#8C6239;stop-opacity:0.3"/>
	</radialGradient>
	<path style="fill:url(#SVGID_2_);" d="M231.979,153.039c0,8.547,6.926,15.479,15.47,15.484c8.552,0.005,15.484-6.922,15.489-15.475
		c0,0,0-0.005,0-0.01c0-8.549-6.928-15.479-15.481-15.484c-8.542,0-15.478,6.928-15.478,15.475
		C231.979,153.034,231.979,153.039,231.979,153.039z"/>
	<path style="fill:#242424;" d="M238.477,153.039c0,4.959,4.019,8.981,8.981,8.984c4.956,0.003,8.981-4.017,8.981-8.979
		c0,0,0-0.003,0-0.006c0.003-4.96-4.02-8.981-8.977-8.984c-4.962,0-8.983,4.02-8.986,8.979
		C238.477,153.036,238.477,153.039,238.477,153.039z"/>
	<path style="fill:#F5F5F5;" d="M189.084,302.17c-31.432,0-44.904-38.701-44.904-51.714c0-13.006,20.026-14.291,44.904-14.291
		c24.873,0,44.904,1.285,44.904,14.291C233.988,263.469,220.517,302.17,189.084,302.17L189.084,302.17z"/>
	<path style="fill:#737373;" d="M233.988,254.947l-4.869-112.025c0-14.244-16.773-33.175-41.646-33.175
		c-24.878,0-38.423,20.063-38.423,34.308l-4.87,110.893H233.988z"/>
	<path style="fill:#B3B3B3;" d="M58.455,102.55V37.237l65.317,32.653c0,0-33.599,11.02-42.939,15.69
		C73.844,89.075,58.455,102.55,58.455,102.55z"/>
	<path style="fill:#B3B3B3;" d="M319.713,102.55V37.237l-65.317,32.653c0,0,28.072,6.752,39.167,12.419
		C304.466,87.878,319.713,102.55,319.713,102.55z"/>
	<path style="fill:#E6E6E6;" d="M189.085,306.843c-25.424,0-45.89-43.241-45.89-61.918c0-18.672,20.466-20.512,45.89-20.512
		c25.419,0,45.89,1.843,45.89,20.512C234.975,263.599,214.504,306.843,189.085,306.843L189.085,306.843z"/>
	<path style="fill:#242424;" d="M189.084,302.17c-24.878,0-44.904-32.979-44.904-47.223c0-14.241,20.026-15.645,44.904-15.645
		c24.873,0,44.904,1.406,44.904,15.645C233.988,269.188,213.957,302.17,189.084,302.17L189.084,302.17z"/>
	<path style="fill:#737373;" d="M101.747,131.378"/>
	<path style="fill:#B3B3B3;" d="M99.5,153.04c0.222,18.801,15.729,25.707,15.729,25.707s-32.979,2-67.729,24l11.125-17.336l-21.65,3
		l15.358-12.91l-10.314-0.01l10.814-9.244l-7.835-4.225l9.335-4.404l-7.29-7.871l12.124-2.833l-7.5-9.167H64l-4.545-7.93
		l15.878,0.76l-4.334-8.164l12.668,2l24.59,8.55C108.257,132.963,99.395,144.088,99.5,153.04z"/>
	<path style="fill:#B3B3B3;" d="M277.965,153.04c-0.222,18.801-15.729,25.707-15.729,25.707s31.265-6,62.202,17.5l-3.473-12.333
		l12.535,1.497l-8.368-9.91l10.368-1.504l-9.107-8.699l6.074-3.275l-9.335-4.404l7.29-7.871l-12.124-2.833l7.5-9.167h-12.333
		l4.545-7.93l-15.878,0.76l4.334-8.164l-12.668,2l-24.59,8.55C269.208,132.963,278.07,144.088,277.965,153.04z"/>
	<path style="fill:#737373;" d="M99.5,153.04c0.159,17.215,15.729,25.707,15.729,25.707c-16.979,2-33.979,6.673-57.862,18.236
		l6.92-15.264L51,183.102l10.302-9.087l-7.393-0.009l7.752-8.464l-5.615-3.867l6.688-4.034l-5.223-7.204l8.687-2.447l-5.373-8.242
		h8.837l-3.256-7.407l11.907,0.011l-3.498-7.602l9.269-1.002l24.75,8.916C108.833,132.663,99.426,144.847,99.5,153.04z"/>
	<path style="fill:#737373;" d="M189.084,153.563l-114.27-28.814c15.845-15.521,72.854-24.682,114.271-14.238L189.084,153.563z
		 M185.86,153.694l114.27-28.813c-15.845-15.531-72.852-24.708-114.269-14.265L185.86,153.694z"/>
	<path style="fill:#737373;" d="M275.712,151.864c-0.19,16.593-13.477,26.883-13.477,26.883s25.64-4.375,53.817,11.544l-3.502-11.18
		l12.071,0.364l-8.501-7.788l8.106-1.742l-8.535-6.426l6.713-3.728l-7.997-3.888l6.245-6.946l-10.387-2.311l6.425-7.9h-10.565
		l3.894-7.189l-13.604,0.576l3.714-7.253l-10.854,1.741l-20.442,5.817C268.833,132.439,275.802,143.963,275.712,151.864z"/>
	<polygon style="fill:#737373;" points="36.975,102.55 19,94.996 27.344,131.378 8,137.556 27.4,157.586 0,175.492 27.43,185.42 	
		"/>
	<polygon style="fill:#737373;" points="344.242,117.974 366.177,106.046 353.5,138.747 369,148.247 354.582,168.548 
		366.177,178.247 350.738,185.524 	"/>
	<path style="fill:#737373;" d="M248.676,49.725l4.746-2.712c-20.489-7.328-44.253-9.783-64.338-9.783
		c-2.262,0-4.499,0.066-6.736,0.12C203.623,37.948,232.408,44.011,248.676,49.725z M115.622,49.725
		c2.879-0.997,5.787-1.9,8.723-2.712L52.968,6.007c-3.368-1.934-7.514-1.919-10.864,0.04c-0.404,0.236-0.716,0.561-1.078,0.842
		L115.622,49.725z M341.481,99.808V15.463c-0.011-6.021-4.905-10.89-10.926-10.879c-1.878,0.006-3.725,0.494-5.358,1.423
		l-1.538,0.87c2.687,2.049,4.351,5.162,4.351,8.578v84.347c10.885,21.027,9.257,60.459,9.257,85.609h13.472
		C350.738,160.264,352.366,120.835,341.481,99.808z"/>
</g>
<polygon style="fill:#737373;" points="130.631,45.069 124.627,32.747 144.079,41.666 153,40.004 153,32.747 160.969,38.908 "/>
<text transform="matrix(1 0 0 1 397.5986 245.3027)" style="fill:#515151; font-family:'FiraCode-Bold'; font-size:130.245;">Formular</text>
</svg>
