<?xml version="1.0" encoding="utf-8"?>
<!-- Generator: Adobe Illustrator 16.0.0, SVG Export Plug-In . SVG Version: 6.00 Build 0)  -->
<!DOCTYPE svg PUBLIC "-//W3C//DTD SVG 1.1//EN" "http://www.w3.org/Graphics/SVG/1.1/DTD/svg11.dtd">
<svg version="1.1" id="图层_1" xmlns="http://www.w3.org/2000/svg" xmlns:xlink="http://www.w3.org/1999/xlink" x="0px" y="0px"
	 width="1025.941px" height="347.072px" viewBox="152 198.252 1025.941 347.072"
	 enable-background="new 152 198.252 1025.941 347.072" xml:space="preserve">
<g>
	<path fill="#B3B3B3" d="M593.151,396.87h31.52v15.369h-31.52v35.816h-21.49v-90.26h59.262l-2.084,15.239h-35.688V396.87
		L593.151,396.87z"/>
	<path fill="#B3B3B3" d="M699.495,386.516c5.946,6.644,8.922,15.564,8.922,26.767c0,11.637-2.953,20.709-8.856,27.221
		c-5.905,6.513-14.153,9.77-24.747,9.77c-10.595,0-18.843-3.233-24.745-9.703c-5.906-6.469-8.856-15.521-8.856-27.156
		c0-7.379,1.322-13.826,3.972-19.341c2.648-5.515,6.514-9.813,11.593-12.896c5.08-3.081,11.092-4.624,18.039-4.624
		C685.318,376.552,693.547,379.873,699.495,386.516z M665.437,396.936c-1.998,3.432-2.995,8.923-2.995,16.477
		c0,7.642,0.997,13.178,2.995,16.605c1.996,3.433,5.122,5.146,9.378,5.146c4.254,0,7.38-1.735,9.378-5.21
		c1.996-3.472,2.996-9.029,2.996-16.671c0-7.467-1-12.915-2.996-16.347c-1.998-3.429-5.124-5.145-9.378-5.145
		C670.559,391.791,667.433,393.507,665.437,396.936z"/>
	<path fill="#B3B3B3" d="M787.214,378.896l-3.777,28.913h-13.023v-12.634c-3.822,0.608-7.208,2.65-10.159,6.122
		c-2.953,3.475-5.255,7.859-6.903,13.154v19.798h13.677v13.806h-43.371V434.25h9.117v-41.679h-9.117v-13.677h24.877l3.646,15.499
		c2.519-5.902,5.688-10.31,9.509-13.22c3.819-2.908,8.509-4.363,14.065-4.363C779.92,376.813,783.74,377.509,787.214,378.896z"/>
	<path fill="#B3B3B3" d="M863.21,381.438c2.3,3.256,3.452,8.399,3.452,15.434v51.187h-17.584v-48.842
		c0-2.518-0.239-4.253-0.716-5.21c-0.479-0.954-1.367-1.433-2.67-1.433c-2.433,0-4.819,1.521-7.164,4.559v50.926h-14.587v-48.842
		c0-2.518-0.24-4.253-0.718-5.21c-0.478-0.954-1.366-1.433-2.67-1.433c-2.432,0-4.817,1.521-7.162,4.559v50.926h-17.845v-69.159
		h14.979l1.433,6.643c2.257-3.126,4.493-5.405,6.707-6.838c2.215-1.434,4.797-2.149,7.75-2.149c2.69,0,4.949,0.674,6.772,2.021
		c1.822,1.347,3.125,3.408,3.906,6.187c4.689-5.471,9.77-8.206,15.239-8.206C857.284,376.552,860.908,378.18,863.21,381.438z"/>
	<path fill="#B3B3B3" d="M899.873,426.176c0,3.213,0.586,5.492,1.758,6.838c1.172,1.348,2.931,2.02,5.275,2.02
		c2.084,0,4.21-0.672,6.382-2.02c2.169-1.346,3.95-3.19,5.34-5.536v-48.58h20.579v69.159h-17.975l-0.911-8.074
		c-2.26,3.301-5.298,5.841-9.117,7.618c-3.822,1.779-7.859,2.671-12.113,2.671c-6.512,0-11.439-1.89-14.781-5.665
		c-3.345-3.777-5.016-9.054-5.016-15.825v-49.885h20.579V426.176z"/>
	<path fill="#B3B3B3" d="M993.519,426.306c0,5.124,2.949,7.686,8.855,7.686c3.211,0,6.512-0.694,9.898-2.084l4.818,13.806
		c-5.558,3.039-12.2,4.559-19.928,4.559c-8.075,0-14.132-2.32-18.169-6.968c-4.038-4.645-6.058-11.179-6.058-19.602v-58.22H952.62
		v-14.066h40.896v74.89H993.519z"/>
	<path fill="#B3B3B3" d="M1094.847,433.729c0.693,1.218,1.866,2.13,3.518,2.735l-4.298,13.546
		c-4.168-0.436-7.644-1.368-10.421-2.801c-2.779-1.433-4.948-3.537-6.513-6.316c-2.604,3.04-5.905,5.362-9.897,6.969
		c-3.995,1.604-8.25,2.408-12.765,2.408c-7.12,0-12.809-2.019-17.063-6.056c-4.255-4.038-6.382-9.269-6.382-15.695
		c0-7.467,2.951-13.263,8.855-17.388c5.904-4.123,14.197-6.187,24.877-6.187h9.247v-2.476c0-7.118-4.559-10.68-13.676-10.68
		c-2.344,0-5.274,0.325-8.791,0.977c-3.517,0.652-6.926,1.543-10.226,2.67l-4.688-13.676c4.429-1.647,9.052-2.931,13.871-3.842
		c4.818-0.912,9.183-1.368,13.09-1.368c20.143,0,30.217,8.163,30.217,24.486v27.091
		C1093.805,430.648,1094.15,432.515,1094.847,433.729z M1068.603,433.534c2.388-1.345,4.188-3.19,5.404-5.535v-11.331h-5.079
		c-11.114,0-16.672,3.474-16.672,10.419c0,2.692,0.804,4.776,2.41,6.252c1.605,1.479,3.885,2.214,6.838,2.214
		C1063.848,435.553,1066.213,434.882,1068.603,433.534z"/>
	<path fill="#B3B3B3" d="M1177.941,378.896l-3.777,28.913h-13.024v-12.634c-3.821,0.608-7.208,2.65-10.158,6.122
		c-2.953,3.475-5.256,7.859-6.903,13.154v19.798h13.676v13.806h-43.371V434.25h9.117v-41.679h-9.117v-13.677h24.877l3.646,15.499
		c2.518-5.902,5.687-10.31,9.508-13.22c3.82-2.908,8.509-4.363,14.066-4.363C1170.647,376.813,1174.468,377.509,1177.941,378.896z"
		/>
</g>
<path fill="#808080" d="M279.207,250l-19.108-38L298,231v-12l14,9l19.766-6.667l-4.002,6L339,226.667V231h9h5l21-21.667
	l-6.666,15.333c0,0,37.137-14,46.901-24.667c9.764-10.667-11.568,31-11.568,31l12.271-3.083L404,250H279.207z"/>
<path fill="#737373" d="M356.082,235.94l5.918-6.69l0.5,3.125c0,0,28.291-7.417,36.375-14.75s-7.292,19.542-8.625,20.125
	s12.625-1.375,12.625-1.375L399,244.326L356.082,235.94z"/>
<g>
	<path fill="#808080" d="M341.085,309.509"/>
	<path fill="#737373" d="M179.43,383.673c0-25.156-1.628-64.585,9.257-85.599v-84.353c0-3.879,2.071-7.46,5.422-9.417
		c3.352-1.959,7.497-1.976,10.862-0.039l71.756,41c17.977-6.317,40.585-9.781,64.357-9.781c23.768,0,46.381,3.464,64.357,9.781
		l71.751-41c5.217-2.983,11.865-1.173,14.853,4.047c0.94,1.647,1.435,3.511,1.432,5.408v84.34
		c10.891,21.031,9.263,60.459,9.263,85.61"/>
	<path fill="#E6E6E6" d="M502.738,383.673c-74.405-44.34-15.905-71.34-160.32-74.164c-170.053-3.325-96.751,50.769-162.988,74.164
		c-8.979,22.45,1.333,62.864,5.824,67.354c8.981-4.49,26.943-8.981,40.413-8.981c-8.979,8.981-13.47,40.414-13.47,53.886
		c17.961-8.98,35.921-4.489,44.902,4.491c13.472,40.413,71.846,44.901,85.317,44.901c13.473,0,70.498-4.488,83.971-44.901
		c8.981-8.98,22.466-13.473,44.916-4.491c0-13.472-4.114-44.903-13.094-53.886c13.47,0,31.067,4.506,40.049,8.996
		C502.749,446.552,511.717,406.123,502.738,383.673z"/>
	<path fill="#F5F5F5" d="M381.119,472.577c0,11.89-17.856,26.26-40.035,26.26s-40.034-14.355-40.034-26.26v-19.366h80.069V472.577z"
		/>
	<path fill="#CCCCCC" d="M437.584,439.501c8.05,8.052,14.12,36.649,14.951,51.671c5.456,0.434,11.656,1.914,18.769,4.76
		c0-12.419-3.361-39.657-13.094-53.886C451.274,440.52,443.933,439.501,437.584,439.501z M407.788,500.423
		c-11.356,34.082-54.646,42.486-76.022,44.327c3.98,0.337,7.199,0.574,9.305,0.574c13.472,0,71.846-4.488,85.317-44.901
		c3.786-3.786,8.373-6.756,14.104-8.271C425.147,488.896,415.01,493.201,407.788,500.423z M487.543,398.817h-0.011
		c7.135,15.183-1.846,37.028-5.198,46.709c6.267,1.592,11.979,3.539,15.925,5.516c4.479-4.505,13.458-44.919,4.479-67.369
		c-5.209-4.171-3.1-4.135-13.597-8.85"/>
	<path fill="#F5F5F5" d="M260.257,351.292c-0.006,12.399,10.042,22.456,22.442,22.462c12.4,0.006,22.456-10.042,22.462-22.441
		c0-0.007,0-0.013,0-0.021c0.006-12.399-10.042-22.456-22.442-22.462c-12.399-0.006-22.456,10.042-22.462,22.442
		C260.257,351.28,260.257,351.286,260.257,351.292z"/>
	
		<radialGradient id="SVGID_1_" cx="63.6685" cy="552.0469" r="15.4824" gradientTransform="matrix(1 0 0 -1 219.04 903.3398)" gradientUnits="userSpaceOnUse">
		<stop  offset="0.12" style="stop-color:#FFFF00"/>
		<stop  offset="1" style="stop-color:#8C6239;stop-opacity:0.3"/>
	</radialGradient>
	<path fill="url(#SVGID_1_)" d="M267.229,351.293c0,8.547,6.926,15.479,15.47,15.484c8.552,0.005,15.484-6.922,15.489-15.476
		c0,0,0-0.005,0-0.01c0-8.549-6.928-15.479-15.481-15.484c-8.542,0-15.478,6.929-15.478,15.476
		C267.229,351.288,267.229,351.293,267.229,351.293z"/>
	<path fill="#242424" d="M273.729,351.292c0,4.959,4.019,8.981,8.976,8.984c4.962,0.003,8.984-4.018,8.987-8.979
		c0,0,0-0.003,0-0.006c0-4.96-4.02-8.981-8.982-8.984c-4.956,0-8.98,4.021-8.98,8.979
		C273.729,351.289,273.729,351.292,273.729,351.292z"/>
	<path fill="#F5F5F5" d="M377.007,351.292c0,12.399,10.051,22.453,22.451,22.453c12.399,0,22.453-10.054,22.453-22.453l0,0
		c0-12.399-10.054-22.45-22.453-22.45C387.058,328.842,377.007,338.893,377.007,351.292z"/>
	
		<radialGradient id="SVGID_2_" cx="180.4185" cy="552.0488" r="15.4819" gradientTransform="matrix(1 0 0 -1 219.04 903.3398)" gradientUnits="userSpaceOnUse">
		<stop  offset="0.3005" style="stop-color:#FFFF00"/>
		<stop  offset="1" style="stop-color:#8C6239;stop-opacity:0.3"/>
	</radialGradient>
	<path fill="url(#SVGID_2_)" d="M383.979,351.292c0,8.547,6.926,15.479,15.47,15.484c8.552,0.005,15.484-6.923,15.489-15.476
		c0,0,0-0.005,0-0.01c0-8.549-6.928-15.479-15.481-15.484c-8.542,0-15.478,6.929-15.478,15.476
		C383.979,351.287,383.979,351.292,383.979,351.292z"/>
	<path fill="#242424" d="M390.477,351.292c0,4.959,4.019,8.981,8.981,8.984c4.956,0.003,8.981-4.018,8.981-8.979
		c0,0,0-0.003,0-0.006c0.003-4.96-4.02-8.981-8.977-8.984c-4.962,0-8.983,4.021-8.986,8.979
		C390.477,351.289,390.477,351.292,390.477,351.292z"/>
	<path fill="#F5F5F5" d="M341.084,500.423c-31.432,0-44.904-38.701-44.904-51.714c0-13.006,20.026-14.291,44.904-14.291
		c24.873,0,44.904,1.285,44.904,14.291C385.988,461.722,372.517,500.423,341.084,500.423L341.084,500.423z"/>
	<path fill="#737373" d="M385.988,453.2l-4.869-112.025c0-14.244-16.773-33.175-41.646-33.175
		c-24.878,0-38.423,20.063-38.423,34.308L296.18,453.2H385.988z"/>
	<path fill="#B3B3B3" d="M210.455,300.803V235.49l65.317,32.653c0,0-33.599,11.02-42.939,15.69
		C225.844,287.328,210.455,300.803,210.455,300.803z"/>
	<path fill="#B3B3B3" d="M471.713,300.803V235.49l-65.317,32.653c0,0,28.072,6.752,39.167,12.419
		C456.466,286.131,471.713,300.803,471.713,300.803z"/>
	<path fill="#E6E6E6" d="M341.085,505.096c-25.424,0-45.89-43.24-45.89-61.918c0-18.672,20.466-20.512,45.89-20.512
		c25.419,0,45.89,1.843,45.89,20.512C386.975,461.852,366.504,505.096,341.085,505.096L341.085,505.096z"/>
	<path fill="#242424" d="M341.084,500.423c-24.878,0-44.904-32.979-44.904-47.223c0-14.241,20.026-15.646,44.904-15.646
		c24.873,0,44.904,1.406,44.904,15.646C385.988,467.441,365.957,500.423,341.084,500.423L341.084,500.423z"/>
	<path fill="#737373" d="M253.747,329.631"/>
	<path fill="#B3B3B3" d="M251.5,351.293C251.722,370.094,267.229,377,267.229,377s-32.979,2-67.729,24l11.125-17.336l-21.65,3
		l15.358-12.91l-10.314-0.01l10.814-9.244l-7.835-4.225l9.335-4.404l-7.29-7.871l12.124-2.833l-7.5-9.167H216l-4.545-7.93
		l15.878,0.76l-4.334-8.164l12.668,2l24.59,8.55C260.257,331.216,251.395,342.341,251.5,351.293z"/>
	<path fill="#B3B3B3" d="M429.965,351.293c-0.222,18.801-15.73,25.707-15.73,25.707s31.265-6,62.202,17.5l-3.473-12.333
		l12.535,1.497l-8.368-9.91l10.368-1.504l-9.107-8.699l6.074-3.274l-9.335-4.404l7.29-7.871l-12.124-2.833l7.5-9.167h-12.333
		l4.545-7.93l-15.878,0.76l4.334-8.164l-12.668,2l-24.59,8.55C421.208,331.216,430.07,342.341,429.965,351.293z"/>
	<path fill="#737373" d="M251.5,351.293C251.659,368.508,267.229,377,267.229,377c-16.979,2-33.979,6.673-57.862,18.236l6.92-15.265
		L203,381.354l10.302-9.087l-7.393-0.009l7.752-8.464l-5.615-3.867l6.688-4.034l-5.223-7.203l8.688-2.447L212.824,338h8.837
		l-3.256-7.407l11.907,0.011l-3.498-7.602l9.269-1.002l24.75,8.916C260.833,330.916,251.426,343.1,251.5,351.293z"/>
	<path fill="#737373" d="M341.084,351.816l-114.27-28.814c15.845-15.521,72.854-24.682,114.271-14.238L341.084,351.816z
		 M337.86,351.947l114.27-28.813c-15.845-15.531-72.852-24.708-114.269-14.265L337.86,351.947z"/>
	<path fill="#737373" d="M427.712,350.117C427.521,366.71,414.235,377,414.235,377s25.64-4.375,53.817,11.544l-3.502-11.18
		l12.071,0.364l-8.501-7.788l8.105-1.742l-8.534-6.426l6.713-3.729l-7.997-3.888l6.245-6.946l-10.388-2.311l6.426-7.9h-10.565
		l3.894-7.189l-13.604,0.576l3.714-7.253l-10.854,1.741l-20.442,5.817C420.833,330.692,427.802,342.216,427.712,350.117z"/>
	<polygon fill="#737373" points="188.975,300.803 171,293.249 179.344,329.631 160,335.809 179.4,355.839 152,373.745 
		179.43,383.673 	"/>
	<polygon fill="#737373" points="496.242,316.227 518.177,304.299 505.5,337 521,346.5 506.582,366.801 518.177,376.5 
		502.738,383.777 	"/>
	<path fill="#737373" d="M400.676,247.978l4.746-2.712c-20.489-7.328-44.253-9.783-64.338-9.783c-2.262,0-4.499,0.066-6.736,0.12
		C355.623,236.201,384.408,242.264,400.676,247.978z M267.622,247.978c2.879-0.997,5.787-1.9,8.723-2.712l-71.377-41.005
		c-3.368-1.934-7.514-1.919-10.864,0.04c-0.404,0.236-0.716,0.561-1.078,0.842L267.622,247.978z M493.481,298.061v-84.344
		c-0.012-6.021-4.905-10.89-10.927-10.879c-1.878,0.006-3.725,0.494-5.357,1.423l-1.538,0.87c2.687,2.049,4.351,5.162,4.351,8.578
		v84.347c10.886,21.027,9.257,60.459,9.257,85.609h13.473C502.738,358.517,504.366,319.088,493.481,298.061z"/>
</g>
<polygon fill="#737373" points="282.631,243.322 276.627,231 296.079,239.919 305,238.257 305,231 312.969,237.161 "/>
<g>
	<path fill="#515151" d="M585.155,392.369h31.52v15.369h-31.52v35.816h-21.49v-90.26h59.262l-2.084,15.239h-35.688V392.369
		L585.155,392.369z"/>
	<path fill="#515151" d="M691.499,382.015c5.946,6.644,8.922,15.564,8.922,26.767c0,11.637-2.953,20.709-8.855,27.221
		c-5.906,6.513-14.154,9.77-24.747,9.77c-10.596,0-18.844-3.233-24.746-9.703c-5.906-6.469-8.856-15.521-8.856-27.156
		c0-7.379,1.322-13.826,3.973-19.341c2.647-5.515,6.513-9.813,11.592-12.896c5.08-3.081,11.092-4.624,18.039-4.624
		C677.322,372.051,685.551,375.372,691.499,382.015z M657.44,392.435c-1.999,3.432-2.996,8.923-2.996,16.477
		c0,7.642,0.997,13.178,2.996,16.605c1.995,3.433,5.121,5.146,9.377,5.146c4.254,0,7.38-1.735,9.378-5.21
		c1.996-3.472,2.996-9.029,2.996-16.671c0-7.467-1-12.915-2.996-16.347c-1.998-3.429-5.124-5.145-9.378-5.145
		S659.437,389.006,657.44,392.435z"/>
	<path fill="#515151" d="M779.218,374.396l-3.776,28.913h-13.024v-12.634c-3.822,0.608-7.208,2.65-10.159,6.122
		c-2.953,3.475-5.255,7.859-6.902,13.154v19.798h13.676v13.806H715.66V429.75h9.117v-41.679h-9.117v-13.677h24.877l3.646,15.499
		c2.519-5.902,5.688-10.31,9.509-13.22c3.819-2.908,8.509-4.363,14.065-4.363C771.924,372.313,775.744,373.008,779.218,374.396z"/>
	<path fill="#515151" d="M855.214,376.936c2.3,3.257,3.452,8.4,3.452,15.435v51.187h-17.584v-48.842c0-2.518-0.239-4.253-0.716-5.21
		c-0.479-0.954-1.367-1.433-2.67-1.433c-2.433,0-4.819,1.521-7.164,4.559v50.926h-14.587v-48.842c0-2.518-0.24-4.253-0.718-5.21
		c-0.478-0.954-1.366-1.433-2.67-1.433c-2.432,0-4.817,1.521-7.162,4.559v50.926h-17.845v-69.16h14.979l1.433,6.644
		c2.257-3.126,4.493-5.405,6.707-6.838c2.215-1.434,4.797-2.149,7.75-2.149c2.69,0,4.949,0.674,6.772,2.021
		c1.822,1.347,3.126,3.407,3.906,6.187c4.689-5.471,9.77-8.206,15.239-8.206C849.288,372.051,852.912,373.679,855.214,376.936z"/>
	<path fill="#515151" d="M891.877,421.675c0,3.213,0.586,5.492,1.758,6.838c1.172,1.348,2.932,2.02,5.275,2.02
		c2.084,0,4.21-0.672,6.382-2.02c2.169-1.346,3.95-3.19,5.34-5.536v-48.58h20.579v69.159h-17.975l-0.911-8.074
		c-2.259,3.301-5.298,5.841-9.117,7.618c-3.822,1.779-7.859,2.67-12.113,2.67c-6.512,0-11.439-1.889-14.781-5.664
		c-3.345-3.777-5.016-9.054-5.016-15.825v-49.885h20.579V421.675L891.877,421.675z"/>
	<path fill="#515151" d="M985.521,421.805c0,5.124,2.95,7.686,8.856,7.686c3.211,0,6.512-0.694,9.898-2.084l4.818,13.806
		c-5.558,3.039-12.2,4.559-19.928,4.559c-8.075,0-14.132-2.32-18.169-6.968c-4.038-4.645-6.057-11.179-6.057-19.602v-58.22h-20.318
		v-14.066h40.896v74.89H985.521z"/>
	<path fill="#515151" d="M1086.851,429.229c0.693,1.218,1.866,2.13,3.518,2.735l-4.298,13.546
		c-4.168-0.436-7.644-1.368-10.421-2.801c-2.779-1.433-4.948-3.537-6.513-6.316c-2.604,3.04-5.905,5.362-9.897,6.969
		c-3.995,1.604-8.25,2.408-12.765,2.408c-7.12,0-12.809-2.019-17.063-6.056c-4.255-4.038-6.382-9.269-6.382-15.695
		c0-7.467,2.951-13.263,8.855-17.388c5.904-4.123,14.197-6.187,24.877-6.187h9.247v-2.476c0-7.118-4.559-10.68-13.676-10.68
		c-2.344,0-5.274,0.325-8.791,0.977c-3.517,0.652-6.926,1.543-10.226,2.67l-4.688-13.676c4.429-1.647,9.052-2.931,13.871-3.842
		c4.818-0.912,9.183-1.368,13.09-1.368c20.143,0,30.217,8.163,30.217,24.486v27.091
		C1085.809,426.147,1086.154,428.014,1086.851,429.229z M1060.604,429.033c2.389-1.346,4.188-3.19,5.405-5.535v-11.331h-5.079
		c-11.114,0-16.672,3.474-16.672,10.419c0,2.692,0.803,4.776,2.41,6.252c1.605,1.479,3.885,2.214,6.838,2.214
		C1055.853,431.052,1058.217,430.381,1060.604,429.033z"/>
	<path fill="#515151" d="M1169.945,374.396l-3.777,28.913h-13.024v-12.634c-3.821,0.608-7.208,2.65-10.158,6.122
		c-2.953,3.475-5.256,7.859-6.903,13.154v19.798h13.676v13.806h-43.371V429.75h9.117v-41.679h-9.117v-13.677h24.877l3.646,15.499
		c2.518-5.902,5.687-10.31,9.508-13.22c3.82-2.908,8.509-4.363,14.066-4.363C1162.651,372.313,1166.472,373.008,1169.945,374.396z"
		/>
</g>
</svg>
